<svg display="none" xmlns="http://www.w3.org/2000/svg">

    <symbol id="facebook" viewBox="0 0 14 23">
        <g>
            <path
                d="M8.64757912,23 L4.69752935,23 C4.03774499,23 3.50103504,22.4995422 3.50103504,21.8843231 L3.50103504,13.5765838 L1.19649437,13.5765838 C0.536709951,13.5765838 0,13.0759506 0,12.460907 L0,8.90102385 C0,8.28580476 0.536709951,7.785347 1.19649437,7.785347 L3.50103504,7.785347 L3.50103504,6.00268555 C3.50103504,4.23511506 4.09627122,2.73128508 5.22219537,1.65403745 C6.35320054,0.571876537 7.93378501,0 9.79307474,0 L12.8055758,0.00456235547 C13.464231,0.00561523438 14,0.506072998 14,1.12023926 L14,4.42550659 C14,5.04072573 13.4634783,5.54118345 12.8038821,5.54118345 L10.7756002,5.5418854 C10.1570288,5.5418854 9.99951611,5.6575241 9.96583058,5.69297029 C9.91031539,5.75175474 9.84426166,5.91793059 9.84426166,6.37680054 L9.84426166,7.78517153 L12.6514504,7.78517153 C12.8627847,7.78517153 13.0675324,7.83377839 13.2434874,7.92537688 C13.623061,8.12313843 13.8590478,8.49707795 13.8590478,8.90119936 L13.8575423,12.4610824 C13.8575423,13.0759506 13.3208323,13.5764084 12.661048,13.5764084 L9.84426166,13.5764084 L9.84426166,21.8843231 C9.84426166,22.4995422 9.30736349,23 8.64757912,23 L8.64757912,23 Z M4.94706563,21.6516418 L8.39804284,21.6516418 L8.39804284,12.9729461 C8.39804284,12.5621567 8.75653953,12.2280502 9.19689763,12.2280502 L12.4115117,12.2280502 L12.412829,9.13370515 L9.19670945,9.13370515 C8.75635131,9.13370515 8.39804284,8.79959871 8.39804284,8.38880923 L8.39804284,6.37680054 C8.39804284,5.85002134 8.45543998,5.25094604 8.8818722,4.80067446 C9.39712883,4.25634766 10.2091566,4.1935272 10.7752238,4.1935272 L12.5539695,4.19282534 L12.5539695,1.35256958 L9.79194559,1.34835815 C6.80390894,1.34835815 4.94706563,3.13189697 4.94706563,6.00268555 L4.94706563,8.38880923 C4.94706563,8.7994232 4.58875717,9.13370515 4.14839907,9.13370515 L1.4460306,9.13370515 L1.4460306,12.2280502 L4.14839907,12.2280502 C4.58875717,12.2280502 4.94706563,12.5621567 4.94706563,12.9729461 L4.94706563,21.6516418 Z"
                id="Shape"></path>
        </g>
    </symbol>

    <symbol id="instagram" viewBox="0 0 23 23">
        <g>
            <path
                d="M16.7741089,0 L6.22589111,0 C2.7928772,0 0,2.7928772 0,6.22589111 L0,16.7742844 C0,20.2071228 2.7928772,23 6.22589111,23 L16.7742844,23 C20.2071228,23 23,20.2071228 23,16.7742844 L23,6.22589111 C23,2.7928772 20.2071228,0 16.7741089,0 Z M21.6516418,16.7742844 C21.6516418,19.4636307 19.4636307,21.6516418 16.7741089,21.6516418 L6.22589111,21.6516418 C3.53636931,21.6516418 1.34835815,19.4636307 1.34835815,16.7742844 L1.34835815,6.22589111 C1.34835815,3.53636931 3.53636931,1.34835815 6.22589111,1.34835815 L16.7742844,1.34835815 C19.4636307,1.34835815 21.6516418,3.53636931 21.6516418,6.22589111 L21.6516418,16.7742844 Z"
                id="Shape"></path>
            <path
                d="M11,6 C7.69153718,6 5,8.69153718 5,12 C5,15.3084628 7.69153718,18 11,18 C14.3084628,18 17,15.3084628 17,12 C17,8.69153718 14.3084628,6 11,6 Z M11,16.7135802 C8.40104356,16.7135802 6.28641982,14.5991238 6.28641982,12 C6.28641982,9.40104356 8.40104356,7.28641982 11,7.28641982 C13.5991238,7.28641982 15.7135802,9.40104356 15.7135802,12 C15.7135802,14.5991238 13.5991238,16.7135802 11,16.7135802 Z"
                id="Shape"></path>
            <path
                d="M16.9999056,3 C15.8970304,3 15,3.89721921 15,4.99990558 C15,6.10278079 15.8970304,7 16.9999056,7 C18.1027808,7 19,6.10278079 19,4.99990558 C19,3.89703037 18.1027808,3 16.9999056,3 Z M16.9999056,5.54869928 C16.6973703,5.54869928 16.4511119,5.30244085 16.4511119,4.99990558 C16.4511119,4.69718143 16.6973703,4.45111183 16.9999056,4.45111183 C17.3026297,4.45111183 17.5488882,4.69718143 17.5488882,4.99990558 C17.5488882,5.30244085 17.3026297,5.54869928 16.9999056,5.54869928 Z"
                id="Shape"></path>
        </g>
    </symbol>

    <symbol id="dribble" viewBox="0 0 23 23">
        <g>
            <path
                d="M11.5,0 C5.1678125,0 0,5.16826172 0,11.5 C0,17.8321875 5.16826172,23 11.5,23 C17.8321875,23 23,17.8317383 23,11.5 C23,5.1678125 17.8317383,0 11.5,0 Z M19.3002344,5.00923828 C20.7359375,6.73154297 21.6123633,8.93496094 21.6500977,11.3382812 C19.8505273,10.9173633 17.8519531,10.8890625 15.816543,11.2601172 C15.2869141,11.3566992 14.7572852,11.4793359 14.2308008,11.6266797 C14.0556055,11.1500586 13.8696289,10.6774805 13.6719727,10.2093945 C13.4702734,9.731875 13.2573438,9.26244141 13.0345313,8.79974609 C15.4598633,7.87345703 18.087793,6.49435547 19.3002344,5.00923828 Z M11.5,1.34765625 C14.1423047,1.34765625 16.5514648,2.36244141 18.3595703,4.02230469 C17.6542969,4.98408203 15.6444922,6.38429687 12.42,7.59179688 C11.2942578,5.49574219 9.94435547,3.56949219 8.38466797,1.83730469 C9.36666016,1.51970703 10.4137891,1.34765625 11.5,1.34765625 Z M7.05048828,2.37636719 C8.64117188,4.08025391 10.0094922,5.98314453 11.136582,8.03876953 C7.78181641,9.12453125 4.38527344,9.56746094 1.59248047,9.28130859 C2.27259766,6.24234375 4.31878906,3.71369141 7.05048828,2.37636719 Z M1.34765625,11.5 C1.34765625,11.2017187 1.36158203,10.906582 1.38673828,10.6150391 C2.00306641,10.6801758 2.64589844,10.7129687 3.31029297,10.7129687 C5.93058594,10.7129687 8.87431641,10.2089453 11.7650391,9.25166016 C12.2061719,10.1545898 12.602832,11.0835742 12.9527734,12.0354687 C11.8256836,12.4406641 10.7286914,12.955918 9.69863281,13.5691016 C7.173125,15.0726367 5.32548828,17.0069727 4.55912109,18.9017773 C2.58390625,17.0483008 1.34765625,14.4158789 1.34765625,11.5 Z M11.5,21.6523438 C9.33072266,21.6523438 7.31822266,20.9681836 5.66644531,19.8042578 C6.17855469,18.0738672 7.91074219,16.2019727 10.3881836,14.7271875 C11.2610156,14.2069922 12.2816406,13.7168945 13.3925586,13.3184375 C14.1800391,15.7936328 14.6625,18.4062891 14.8156836,21.0957617 C13.7761914,21.4560352 12.6607812,21.6523438 11.5,21.6523438 Z M16.1300977,20.5337891 C15.9432227,17.9139453 15.4553711,15.3632812 14.6723828,12.9132422 C16.8555859,12.3130859 19.2804687,12.1118359 21.5800195,12.7083984 C21.1730273,16.1229102 19.065293,19.0230664 16.1300977,20.5337891 Z"
                id="Shape"></path>
        </g>
    </symbol>

    <symbol id="like" viewBox="0 0 24 24">
        <g>
            <path
                d="M0,10.7057688 L0,22.2968245 C0,23.0267568 0.574069041,23.6147579 1.27208481,23.6147579 L5.0752922,23.6147579 C5.51236749,23.6147579 5.89073118,23.391723 6.1255776,23.0470327 C6.7322642,23.6350338 7.54117967,24 8.43490079,24 L18.6246263,24 C20.9078554,24 22.3625985,22.7564115 22.623539,20.5936489 L23.9934765,11.5641152 C24,11.530322 24,11.4965289 24,11.4627357 C24,9.53652528 22.4865453,7.96852241 20.6273444,7.96852241 L15.5324817,7.96852241 L15.5324817,4.17692928 C15.5324817,2.53458145 15.0693123,1.35182066 14.1494971,0.648922826 C12.694754,-0.452734361 10.7050829,0.175818513 10.6202772,0.202853045 C10.3528133,0.290715275 10.1701549,0.54754333 10.1701549,0.838164551 L10.1701549,5.15017243 C10.1701549,8.50921306 6.3995651,9.65818068 6.24300082,9.70549111 C6.16471867,9.72576701 6.08643653,9.76631881 6.02772493,9.82038787 C5.7928785,9.55004255 5.45365588,9.38107672 5.08181571,9.38107672 L1.27208481,9.38107672 C0.567545529,9.38107672 0,9.97583643 0,10.7057688 Z M6.35390052,11.0166659 C6.43218266,11.0234246 6.5104648,11.0166659 6.58874694,10.99639 C6.79097581,10.9355623 11.4618103,9.53652528 11.4618103,5.15693107 L11.4618103,1.37885519 C11.9641207,1.2977516 12.7926067,1.27071707 13.3862463,1.73030411 C13.9537918,2.16285663 14.2408263,2.98740986 14.2408263,4.17017064 L14.2408263,8.63086845 C14.2408263,9.00259327 14.5278608,9.29997312 14.886654,9.29997312 L20.6273444,9.29997312 C21.7624354,9.29997312 22.6822506,10.2394231 22.7083447,11.4086666 L21.3449307,20.39089 C21.3449307,20.3976486 21.3449307,20.4044072 21.3449307,20.4111659 C21.1687959,21.8980651 20.2555042,22.6482734 18.6246263,22.6482734 L8.43490079,22.6482734 C7.28676271,22.6482734 6.35390052,21.6817889 6.35390052,20.4922694 L6.35390052,11.0166659 L6.35390052,11.0166659 Z M1.29165534,10.7192861 L5.06224518,10.7192861 L5.06224518,22.2765486 L1.29165534,22.2765486 L1.29165534,10.7192861 Z"
                id="Shape"></path>
        </g>
    </symbol>

    <symbol id="like-hover" viewBox="0 0 24 24">
        <g>
            <path
                d="M0,10.7057688 L0,22.2968245 C0,23.0267568 0.574069041,23.6147579 1.27208481,23.6147579 L5.0752922,23.6147579 C5.51236749,23.6147579 5.89073118,23.391723 6.1255776,23.0470327 C6.7322642,23.6350338 7.54117967,24 8.43490079,24 L18.6246263,24 C20.9078554,24 22.3625985,22.7564115 22.623539,20.5936489 L23.9934765,11.5641152 C24,11.530322 24,11.4965289 24,11.4627357 C24,9.53652528 22.4865453,7.96852241 20.6273444,7.96852241 L15.5324817,7.96852241 L15.5324817,4.17692928 C15.5324817,2.53458145 15.0693123,1.35182066 14.1494971,0.648922826 C12.694754,-0.452734361 10.7050829,0.175818513 10.6202772,0.202853045 C10.3528133,0.290715275 10.1701549,0.54754333 10.1701549,0.838164551 L10.1701549,5.15017243 C10.1701549,8.50921306 6.3995651,9.65818068 6.24300082,9.70549111 C6.16471867,9.72576701 6.08643653,9.76631881 6.02772493,9.82038787 C5.7928785,9.55004255 5.45365588,9.38107672 5.08181571,9.38107672 L1.27208481,9.38107672 C0.567545529,9.38107672 0,9.97583643 0,10.7057688 Z M6.35390052,11.0166659 C6.43218266,11.0234246 6.5104648,11.0166659 6.58874694,10.99639 C6.79097581,10.9355623 11.4618103,9.53652528 11.4618103,5.15693107 L11.4618103,1.37885519 C11.9641207,1.2977516 12.7926067,1.27071707 13.3862463,1.73030411 C13.9537918,2.16285663 14.2408263,2.98740986 14.2408263,4.17017064 L14.2408263,8.63086845 C14.2408263,9.00259327 14.5278608,9.29997312 14.886654,9.29997312 L20.6273444,9.29997312 C21.7624354,9.29997312 22.6822506,10.2394231 22.7083447,11.4086666 L21.3449307,20.39089 C21.3449307,20.3976486 21.3449307,20.4044072 21.3449307,20.4111659 C21.1687959,21.8980651 20.2555042,22.6482734 18.6246263,22.6482734 L8.43490079,22.6482734 C7.28676271,22.6482734 6.35390052,21.6817889 6.35390052,20.4922694 L6.35390052,11.0166659 L6.35390052,11.0166659 Z M1.29165534,10.7192861 L5.06224518,10.7192861 L5.06224518,22.2765486 L1.29165534,22.2765486 L1.29165534,10.7192861 Z"
                id="Shape" fill-rule="nonzero"></path>
            <polygon id="Path-5"
                points="0.946649288 10.7192861 0.946649288 22.6077243 11.7798735 22.9613637 21.4349564 22.6077243 22.9577566 10.6221533 21.4349564 9.2081653 17.5049014 8.79499253 14.5615617 8.79499253 14.5615617 2.17069789 13.6446344 1.26331294 11.7798735 1.26331294 11.2529038 1.4527372 11.2529038 5.43050429 10.0190824 8.40418037 8.61264291 9.95233205 4.58232126 10.6221533">
            </polygon>
        </g>
    </symbol>

    <symbol id="timer" viewBox="0 0 14 14">

        <g>
            <path
                d="M7,0 C3.1402,0 0,3.1402 0,7 C0,10.8598 3.1402,14 7,14 C10.8598,14 14,10.8598 14,7 C14,3.1402 10.8598,0 7,0 Z M7,13.5333333 C3.39756667,13.5333333 0.466666667,10.6024333 0.466666667,7 C0.466666667,3.39756667 3.39756667,0.466666667 7,0.466666667 C10.6024333,0.466666667 13.5333333,3.39756667 13.5333333,7 C13.5333333,10.6024333 10.6024333,13.5333333 7,13.5333333 Z"
                id="Shape"></path>
            <path
                d="M7,1.4 C6.8712,1.4 6.76666667,1.5043 6.76666667,1.63333333 L6.76666667,7 L3.26666667,7 C3.13786667,7 3.03333333,7.1043 3.03333333,7.23333333 C3.03333333,7.36236667 3.13786667,7.46666667 3.26666667,7.46666667 L7,7.46666667 C7.1288,7.46666667 7.23333333,7.36236667 7.23333333,7.23333333 L7.23333333,1.63333333 C7.23333333,1.5043 7.1288,1.4 7,1.4 Z"
                id="Path"></path>
        </g>

    </symbol>
</svg>